<svg version="1.1" id="Layer_1" xmlns="http://www.w3.org/2000/svg" xmlns:xlink="http://www.w3.org/1999/xlink" viewBox="0 0 510.293 510.293" xml:space="preserve" width="64px" height="64px" fill="#000000"><g id="SVGRepo_bgCarrier" stroke-width="0"></g><g id="SVGRepo_tracerCarrier" strokeLinecap="round" stroke-linejoin="round"></g><g id="SVGRepo_iconCarrier"> <g transform="translate(1 1)"> <path style="fill:#676251;" d="M296.387,273.773c-6.827,8.533-15.36,17.067-23.893,23.893l73.387,73.387l23.893-23.893 L296.387,273.773z"></path> <path style="fill:#e7e00d;" d="M332.227,171.373c0,89.6-72.533,162.133-162.133,162.133S7.96,260.973,7.96,171.373 S80.493,9.24,170.093,9.24C259.693,9.24,332.227,82.627,332.227,171.373"></path> <path style="fill:#FFA800;" d="M170.093,9.24c-4.267,0-8.533,0-12.8,0.853c83.627,6.827,149.333,76.8,149.333,161.28 S240.92,326.68,157.293,332.653c4.267,0,8.533,0.853,12.8,0.853c89.6,0,162.133-72.533,162.133-162.133 C332.227,82.627,259.693,9.24,170.093,9.24"></path> <path style="fill:#FFFFFF;" d="M33.56,171.373c0-85.333,65.707-155.307,149.333-161.28c-4.267,0-8.533-0.853-12.8-0.853 C80.493,9.24,7.96,81.773,7.96,171.373s72.533,162.133,162.133,162.133c4.267,0,8.533,0,12.8-0.853 C99.267,326.68,33.56,256.707,33.56,171.373"></path> <path style="fill:#00DA6C;" d="M489.24,492.227L489.24,492.227c-13.653,13.653-34.987,13.653-48.64,0L333.933,383.853l48.64-48.64 l107.52,109.227C502.893,457.24,502.893,479.427,489.24,492.227"></path> <path style="fill:#00AD55;" d="M492.653,442.733l-107.52-109.227L374.04,344.6l96.427,98.133c13.653,13.653,13.653,34.987,0,48.64 c-3.413,3.413-8.533,5.973-12.8,7.68c11.947,4.267,25.6,1.707,34.987-7.68C506.307,477.72,506.307,456.387,492.653,442.733"></path> <path d="M170.093,340.333c-93.867,0-170.667-76.8-170.667-170.667S76.227-1,170.093-1S340.76,75.8,340.76,169.667 S263.96,340.333,170.093,340.333z M170.093,16.067c-84.48,0-153.6,69.12-153.6,153.6s69.12,153.6,153.6,153.6 s153.6-69.12,153.6-153.6S254.573,16.067,170.093,16.067z"></path> <path d="M465.347,509.293c-11.093,0-22.187-4.267-29.867-12.8l-113.493-115.2l60.587-60.587l113.493,115.2 c7.68,7.68,12.8,18.773,12.8,29.867c0,11.093-4.267,22.187-12.8,29.867C487.533,503.32,476.44,509.293,465.347,509.293z M345.88,381.293l101.547,102.4c9.387,9.387,26.453,9.387,35.84,0c5.12-5.12,7.68-11.093,7.68-17.92s-2.56-13.653-7.68-17.92 l-101.547-102.4L345.88,381.293z"></path> <path d="M345.88,381.293l-87.04-86.187l7.68-5.973c8.533-6.827,16.213-14.507,23.04-23.04l5.973-7.68L381.72,344.6L345.88,381.293z M284.44,295.96l61.44,61.44l11.947-11.947l-61.44-61.44C292.973,288.28,288.707,292.547,284.44,295.96z"></path> <path d="M170.093,340.333c-52.907,0-93.867-75.093-93.867-170.667S117.187-1,170.093-1s93.867,75.093,93.867,170.667 S223,340.333,170.093,340.333z M170.093,16.067c-41.813,0-76.8,69.973-76.8,153.6s34.987,153.6,76.8,153.6s76.8-69.973,76.8-153.6 S211.907,16.067,170.093,16.067z"></path> <rect x="161.56" y="7.533" width="17.067" height="324.267"></rect> <rect x="7.96" y="161.133" width="324.267" height="17.067"></rect> </g> </g></svg>