<svg height="40px" width="50px" version="1.1" id="Layer_1" xmlns="http://www.w3.org/2000/svg" xmlns:xlink="http://www.w3.org/1999/xlink" viewBox="0 0 512 512" xml:space="preserve" fill="#000000"><g id="SVGRepo_bgCarrier" stroke-width="0"></g><g id="SVGRepo_tracerCarrier" strokeLinecap="round" stroke-linejoin="round"></g><g id="SVGRepo_iconCarrier"> <g transform="translate(1 1)"> <g> <path style="fill:#e6b70f;" d="M255,297.667c-23.893,0-42.667-18.773-42.667-42.667s18.773-42.667,42.667-42.667 s42.667,18.773,42.667,42.667S278.893,297.667,255,297.667 M323.267,283.16c1.707-5.12,6.827-7.68,11.947-7.68h13.653v-40.107 h-13.653c-5.12,0-10.24-3.413-11.947-7.68l0,0c-1.707-5.12-0.853-10.24,2.56-13.653l9.387-9.387l-28.16-28.16l-9.387,7.68 c-3.413,3.413-9.387,5.12-13.653,2.56l0,0c-5.12-1.707-7.68-6.827-7.68-11.947v-13.653h-40.107v13.653 c0,5.12-3.413,10.24-7.68,11.947l0,0c-5.12,1.707-10.24,0.853-13.653-2.56l-9.387-9.387l-28.16,28.16l9.387,9.387 c3.413,3.413,5.12,9.387,2.56,13.653l0,0c-1.707,5.12-6.827,7.68-11.947,7.68h-16.213v40.107h13.653 c5.12,0,10.24,3.413,11.947,7.68l0,0c1.707,5.12,0.853,10.24-2.56,13.653l-9.387,9.387l28.16,28.16l9.387-9.387 c3.413-3.413,9.387-5.12,13.653-2.56l0,0c5.12,1.707,7.68,6.827,7.68,11.947v16.213h40.107v-13.653 c0-5.12,3.413-10.24,7.68-11.947l0,0c5.12-1.707,10.24-0.853,13.653,2.56l9.387,9.387l28.16-28.16l-6.827-9.387 C322.413,293.4,320.707,288.28,323.267,283.16L323.267,283.16"></path> <polygon style="fill:#e6b70f;" points="272.067,33.133 255,7.533 203.8,7.533 203.8,41.667 203.8,92.867 306.2,92.867 306.2,33.133 "></polygon> </g> <polygon style="fill:#63D3FD;" points="468.333,109.933 451.267,84.333 400.067,84.333 400.067,118.467 400.067,169.667 502.467,169.667 502.467,109.933 "></polygon> <polygon style="fill:#00DA6C;" points="75.8,109.933 58.733,84.333 7.533,84.333 7.533,118.467 7.533,169.667 109.933,169.667 109.933,109.933 "></polygon> <polygon style="fill:#e6b70f;" points="272.067,442.733 255,417.133 203.8,417.133 203.8,451.267 203.8,502.467 306.2,502.467 306.2,442.733 "></polygon> <polygon style="fill:#00DA6C;" points="468.333,365.933 451.267,340.333 400.067,340.333 400.067,374.467 400.067,425.667 502.467,425.667 502.467,365.933 "></polygon> <polygon style="fill:#63D3FD;" points="75.8,365.933 58.733,340.333 7.533,340.333 7.533,374.467 7.533,425.667 109.933,425.667 109.933,365.933 "></polygon> <path d="M275.48,357.4h-40.107c-5.12,0-8.533-3.413-8.533-8.533v-13.653c0-1.707-0.853-3.413-2.56-4.267l0,0 c-2.56-0.853-3.413,0-5.12,0.853l-9.387,9.387c-3.413,3.413-8.533,3.413-11.947,0l-28.16-28.16c-1.707-1.707-2.56-3.413-2.56-5.973 s0.853-4.267,2.56-5.973l9.387-9.387c0.853-0.853,1.707-3.413,0.853-5.12c-0.853-1.707-2.56-2.56-4.267-2.56h-14.507 c-5.12,0-8.533-3.413-8.533-8.533v-40.107c0-5.12,3.413-8.533,8.533-8.533h13.653c1.707,0,3.413-0.853,4.267-2.56 c0.853-1.707,0-3.413-0.853-5.12l-9.387-9.387c-1.707-1.707-2.56-3.413-2.56-5.973s0.853-4.267,2.56-5.973l28.16-28.16 c3.413-3.413,8.533-3.413,11.947,0l9.387,9.387c0.853,0.853,3.413,1.707,5.12,0.853l0,0c1.707-0.853,2.56-2.56,2.56-4.267v-14.507 c0-5.12,3.413-8.533,8.533-8.533h40.107c5.12,0,8.533,3.413,8.533,8.533v13.653c0,1.707,0.853,3.413,2.56,4.267l0,0 c1.707,0.853,3.413,0,5.12-0.853l9.387-9.387c3.413-3.413,8.533-3.413,11.947,0l28.16,28.16c1.707,1.707,2.56,3.413,2.56,5.973 c0,2.56-0.853,4.267-2.56,5.973l-8.533,9.387c-0.853,0.853-1.707,3.413-0.853,5.12c0.853,1.707,2.56,2.56,4.267,2.56h13.653 c5.12,0,8.533,3.413,8.533,8.533v40.107c0,5.12-3.413,8.533-8.533,8.533h-13.653c-1.707,0-3.413,0.853-4.267,2.56 c-0.853,1.707,0,3.413,0.853,5.12l9.387,9.387c1.707,1.707,2.56,3.413,2.56,5.973s-0.853,4.267-2.56,5.973l-28.16,28.16 c-3.413,3.413-8.533,3.413-11.947,0l-9.387-8.533c-0.853-0.853-3.413-1.707-5.12-0.853h-0.853 c-0.853,0.853-1.707,1.707-1.707,3.413v14.507C284.013,353.987,279.747,357.4,275.48,357.4z M243.053,340.333h23.04v-5.12 c0-8.533,5.12-16.213,13.653-19.627h0.853c1.707-0.853,4.267-1.707,7.68-1.707c5.973,0,11.093,2.56,15.36,5.973l3.413,3.413 l16.213-16.213l-3.413-3.413c-5.973-5.973-7.68-15.36-4.267-23.04c3.413-8.533,11.093-13.653,19.627-13.653h5.12v-23.04h-5.12 c-8.533,0-16.213-5.12-19.627-13.653c-3.413-8.533-1.707-17.067,4.267-23.893l3.413-3.413l-16.213-16.213l-3.413,3.413 c-5.973,5.973-15.36,7.68-23.04,5.12c0,0,0,0-0.853,0c-7.68-3.413-13.653-11.093-13.653-19.627v-5.973h-23.04v5.12 c0,8.533-5.12,16.213-13.653,19.627c0,0,0,0-0.853,0c-7.68,3.413-17.067,0.853-23.04-5.12l-2.56-2.56l-16.213,16.213l3.413,3.413 c5.973,5.973,7.68,15.36,4.267,23.04c-3.413,8.533-11.093,13.653-19.627,13.653h-5.12v23.04h5.12 c8.533,0,16.213,5.12,19.627,13.653c3.413,8.533,1.707,17.067-4.267,23.893l-3.413,3.413l16.213,16.213l3.413-3.413 c5.973-5.973,15.36-7.68,23.04-5.12l0,0c7.68,3.413,13.653,11.093,13.653,19.627V340.333z M255,306.2 c-28.16,0-51.2-23.04-51.2-51.2s23.04-51.2,51.2-51.2s51.2,23.04,51.2,51.2S283.16,306.2,255,306.2z M255,220.867 c-18.773,0-34.133,15.36-34.133,34.133s15.36,34.133,34.133,34.133s34.133-15.36,34.133-34.133S273.773,220.867,255,220.867z"></path> <path d="M306.2,101.4H203.8c-5.12,0-8.533-3.413-8.533-8.533V7.533c0-5.12,3.413-8.533,8.533-8.533H255 c2.56,0,5.12,1.707,6.827,3.413L276.333,24.6H306.2c5.12,0,8.533,3.413,8.533,8.533v59.733 C314.733,97.987,311.32,101.4,306.2,101.4z M212.333,84.333h85.333V41.667h-25.6c-2.56,0-5.12-1.707-6.827-3.413l-14.507-22.187 h-38.4V84.333z"></path> <path d="M502.467,178.2h-102.4c-5.12,0-8.533-3.413-8.533-8.533V84.333c0-5.12,3.413-8.533,8.533-8.533h51.2 c2.56,0,5.12,1.707,6.827,3.413L472.6,101.4h29.867c5.12,0,8.533,3.413,8.533,8.533v59.733 C511,174.787,507.587,178.2,502.467,178.2z M408.6,161.133h85.333v-42.667h-25.6c-2.56,0-5.12-1.707-6.827-3.413L447,92.867h-38.4 V161.133z"></path> <path d="M109.933,178.2H7.533c-5.12,0-8.533-3.413-8.533-8.533V84.333c0-5.12,3.413-8.533,8.533-8.533h51.2 c2.56,0,5.12,1.707,6.827,3.413L80.067,101.4h29.867c5.12,0,8.533,3.413,8.533,8.533v59.733 C118.467,174.787,115.053,178.2,109.933,178.2z M16.067,161.133H101.4v-42.667H75.8c-2.56,0-5.12-1.707-6.827-3.413L54.467,92.867 h-38.4V161.133z"></path> <path d="M306.2,511H203.8c-5.12,0-8.533-3.413-8.533-8.533v-85.333c0-5.12,3.413-8.533,8.533-8.533H255 c2.56,0,5.12,1.707,6.827,3.413l14.507,22.187H306.2c5.12,0,8.533,3.413,8.533,8.533v59.733C314.733,507.587,311.32,511,306.2,511z M212.333,493.933h85.333v-42.667h-25.6c-2.56,0-5.12-1.707-6.827-3.413l-14.507-22.187h-38.4V493.933z"></path> <path d="M502.467,434.2h-102.4c-5.12,0-8.533-3.413-8.533-8.533v-85.333c0-5.12,3.413-8.533,8.533-8.533h51.2 c2.56,0,5.12,1.707,6.827,3.413L472.6,357.4h29.867c5.12,0,8.533,3.413,8.533,8.533v59.733 C511,430.787,507.587,434.2,502.467,434.2z M408.6,417.133h85.333v-42.667h-25.6c-2.56,0-5.12-1.707-6.827-3.413L447,348.867h-38.4 V417.133z"></path> <path d="M109.933,434.2H7.533c-5.12,0-8.533-3.413-8.533-8.533v-85.333c0-5.12,3.413-8.533,8.533-8.533h51.2 c2.56,0,5.12,1.707,6.827,3.413L80.067,357.4h29.867c5.12,0,8.533,3.413,8.533,8.533v59.733 C118.467,430.787,115.053,434.2,109.933,434.2z M16.067,417.133H101.4v-42.667H75.8c-2.56,0-5.12-1.707-6.827-3.413l-14.507-22.187 h-38.4V417.133z"></path> </g> </g></svg>